<?xml version="1.0" encoding="utf-8"?>
<!-- Generator: Adobe Illustrator 26.5.0, SVG Export Plug-In . SVG Version: 6.00 Build 0)  -->
<svg version="1.1" id="Layer_1" xmlns="http://www.w3.org/2000/svg" xmlns:xlink="http://www.w3.org/1999/xlink" x="0px" y="0px"
	 viewBox="0 0 48 40" style="enable-background:new 0 0 48 40;" xml:space="preserve">
<style type="text/css">
	.st0{fill-rule:evenodd;clip-rule:evenodd;fill:#2FB5B0;}
	.st1{fill-rule:evenodd;clip-rule:evenodd;fill:#FFFFFF;}
	.st2{fill:#FFFFFF;}
</style>
<g>
	<polygon class="st0" points="5.8,36.6 6.6,36.5 6.3,36 	"/>
	<polygon class="st0" points="29.7,32.4 30.4,32.3 30.1,31.7 	"/>
	<path class="st0" d="M9.8,35.3l-1.1,0.2v0.3l1.1-0.2c0,0,0.1,0,0.1-0.1v-0.1l0,0v-0.1C9.9,35.3,9.8,35.3,9.8,35.3z"/>
	<path class="st0" d="M0.1,34.9V40l47.8-8.5v-5.1L0.1,34.9z M4.2,37.5l-0.4,0.1v-1l-0.7,1.1l-0.3,0.1L2.3,37v1L1.8,38v-1.6l0.5-0.1
		l0.8,1L3.9,36l0.5-0.1v1.6H4.2z M6.9,37.1l-0.1-0.2l-1.1,0.2l-0.2,0.3L5,37.5l1.1-1.8l0.4-0.1l1.1,1.5H6.9z M9.9,36.5l-0.4-0.4
		l-0.8,0.1v0.5l-0.4,0.1v-1.6l1.6-0.3c0.2,0,0.3,0,0.4,0.1c0.1,0.1,0.1,0.2,0.1,0.3l0,0c0,0.1,0,0.2-0.1,0.3
		c-0.1,0.1-0.2,0.2-0.3,0.2l0.4,0.4L9.9,36.5z M12.8,36.1L12,35.5l-0.4,0.1v0.7l-0.4,0.1v-1.7l0.4-0.1v0.7l0.4-0.1l0.7-0.8l0.7-0.1
		l-0.9,1l1,0.7L12.8,36.1z M16.2,35.4l-2.1,0.3v-1.6l2.1-0.3v0.4l-1.6,0.3v0.1l1.5-0.3v0.4l-1.5,0.3v0.2l1.6-0.3V35.4z M19.1,33.7
		l-0.9,0.1v1.3l-0.4,0.1v-1.3L16.9,34v-0.4l2.3-0.4v0.5H19.1z M20.3,34.8l-0.4,0.1v-1.6l0.4-0.1V34.8z M23.3,34.2l-0.5,0.1l-1.2-0.9
		v1.1l-0.4,0.1V33l0.5-0.1l1.2,0.9v-1.1l0.4-0.1V34.2z M26.4,33.7L26,33.8v-0.1l-0.1,0.1L24.7,34c-0.1,0-0.3,0-0.3-0.1
		s-0.1-0.2-0.1-0.3v-0.7c0-0.1,0-0.2,0.1-0.3s0.2-0.2,0.3-0.2l1.7-0.3v0.4l-1.6,0.3c0,0-0.1,0-0.1,0.1V33v0.5v0.1h0.1l1.2-0.2v-0.2
		l-1.2,0.2v-0.3l1.6-0.3V33.7z M30.7,32.8l-0.2-0.3l-1.1,0.2L29.2,33l-0.5,0.1l1.1-1.8l0.4-0.1l1.1,1.5L30.7,32.8z M34.2,32.3
		l-0.4,0.1v-0.1l-0.1,0.1l-1.2,0.2c-0.1,0-0.3,0-0.3-0.1C32,32.4,32,32.3,32,32.2v-0.7c0-0.1,0-0.2,0.1-0.3c0.1-0.1,0.2-0.2,0.3-0.2
		l1.7-0.3v0.4l-1.6,0.3c0,0-0.1,0-0.1,0.1v0.1v0.5v0.1h0.1l1.2-0.2v-0.2l-1.2,0.2v-0.3l1.6-0.3V32.3z M37,31.7L35,32.1v-1.6l2.1-0.3
		v0.4l-1.6,0.3v0.2l1.5-0.3v0.4l-1.4,0.2v0.2l1.6-0.3v0.4H37z M40.1,31.2l-0.5,0.1l-1.2-0.9v1.1l-0.4,0.1V30l0.5-0.1l1.2,0.9v-1.1
		l0.4-0.1V31.2z M43.1,30.8L41.4,31c-0.1,0-0.3,0-0.3-0.1C41,30.8,41,30.7,41,30.5v-0.7c0-0.1,0-0.2,0.1-0.3
		c0.1-0.1,0.2-0.2,0.3-0.2L43,29v0.4l-1.5,0.3c0,0-0.1,0-0.1,0.1V30v0.5v0.1h0.1l1.6-0.3V30.8z M45.2,29.8v0.5l-0.4,0.1v-0.5l-1-1
		l0.7-0.1l0.7,0.7l0.7-0.9l0.7-0.1L45.2,29.8z"/>
</g>
<g>
	<path class="st1" d="M42.8,0.9"/>
	<polygon class="st1" points="15.3,5.8 0.1,8.5 0.1,13.5 10.3,11.7 10.3,16 15.3,16 2.5,18.2 2.5,23.3 10.3,22 10.3,26.1 15.3,26.1 
		0.1,28.8 0.1,33.9 15.3,31.2 	"/>
	<polygon class="st1" points="31.6,2.9 16.4,5.5 16.4,10.7 26.5,8.9 26.5,13 31.6,13 18.8,15.3 18.8,20.4 26.5,19 26.5,23.3 
		31.6,23.3 16.4,26 16.4,31 31.6,28.4 	"/>
	<g>
		<polygon class="st2" points="47.9,20.3 47.9,25.4 32.7,28.2 32.7,12.8 42.8,11.1 42.8,0.9 47.9,0 47.9,20.3 42.8,20.3 42.8,16.2 
			37.7,17.1 37.7,22.2 		"/>
	</g>
</g>
</svg>
