<?xml version="1.0" encoding="utf-8"?>
<!-- Generator: Adobe Illustrator 26.5.0, SVG Export Plug-In . SVG Version: 6.00 Build 0)  -->
<svg version="1.1" id="Capa_1" xmlns="http://www.w3.org/2000/svg" xmlns:xlink="http://www.w3.org/1999/xlink" x="0px" y="0px"
	 viewBox="0 0 512 512" style="enable-background:new 0 0 512 512;" xml:space="preserve">
<style type="text/css">
	.st0{fill:#FFFFFF;}
</style>
<g>
	<path class="st0" d="M254.3,192.1c-83.4,0-83.2,126,0,126C337.7,318.1,337.6,192.1,254.3,192.1z"/>
	<path class="st0" d="M237.4,100.1c-126,0.1-138,2.5-137.9,154.9c0,150.7,4.3,155,154.9,155c82.6,0,149.8,9.7,153.8-78.6
		C419.5,81.9,399,99.8,237.4,100.1z M254.3,352.2c-53.6,0-97.1-43.5-97.1-97.1c0-53.6,43.5-97.1,97.1-97.1c53.6,0,97,43.5,97,97.1
		C351.3,308.7,307.9,352.2,254.3,352.2z M355.2,176.9c-12.5,0-22.7-10.2-22.7-22.7s10.2-22.7,22.7-22.7c12.6,0,22.7,10.1,22.7,22.7
		C377.9,166.7,367.7,176.9,355.2,176.9z"/>
	<path class="st0" d="M448,0H64C28.7,0,0,28.7,0,64v384c0,35.3,28.7,64,64,64h384c35.3,0,64-28.7,64-64V64C512,28.7,483.3,0,448,0z
		 M433.4,378.8C405,451.7,328.5,444,254.3,444c-76.9,0-151.1,6.9-179.1-65.2c-11.5-29.5-9.9-75.2-9.9-123.8c0-55.3-1.7-94,9.9-123.8
		C103.3,59.1,176.8,66,254.3,66c72,0,121-4.5,157.3,31.7c35.8,35.8,31.7,83.4,31.7,157.3C443.3,310.6,445,348.7,433.4,378.8z"/>
</g>
</svg>
