<?xml version="1.0" encoding="utf-8"?>
<!-- Generator: Adobe Illustrator 26.5.0, SVG Export Plug-In . SVG Version: 6.00 Build 0)  -->
<svg version="1.1" id="Capa_1" xmlns="http://www.w3.org/2000/svg" xmlns:xlink="http://www.w3.org/1999/xlink" x="0px" y="0px"
	 viewBox="0 0 512 512" style="enable-background:new 0 0 512 512;" xml:space="preserve">
<style type="text/css">
	.st0{fill:url(#SVGID_1_);}
	.st1{fill:#FFFFFF;}
</style>
<linearGradient id="SVGID_1_" gradientUnits="userSpaceOnUse" x1="18.764" y1="493.236" x2="493.236" y2="18.764">
	<stop  offset="0" style="stop-color:#FFDD55"/>
	<stop  offset="0.5" style="stop-color:#FF543E"/>
	<stop  offset="1" style="stop-color:#C837AB"/>
</linearGradient>
<path class="st0" d="M448,0H64C28.7,0,0,28.7,0,64v384c0,35.3,28.7,64,64,64h384c35.3,0,64-28.7,64-64V64C512,28.7,483.3,0,448,0z"
	/>
<path class="st1" d="M254.3,66c-77.5,0-151-6.9-179.1,65.2c-11.6,29.8-9.9,68.5-9.9,123.8c0,48.6-1.6,94.3,9.9,123.8
	c28,72.1,102.2,65.2,179.1,65.2c74.2,0,150.7,7.7,179.1-65.2c11.6-30.1,9.9-68.2,9.9-123.8c0-73.9,4.1-121.5-31.7-157.3
	C375.3,61.5,326.3,66,254.3,66L254.3,66z M237.4,100.1C399,99.8,419.5,81.9,408.2,331.4c-4,88.3-71.2,78.6-153.8,78.6
	c-150.6,0-154.9-4.3-154.9-155C99.4,102.6,111.4,100.2,237.4,100.1L237.4,100.1z M355.2,131.5c-12.5,0-22.7,10.2-22.7,22.7
	c0,12.5,10.2,22.7,22.7,22.7c12.5,0,22.7-10.2,22.7-22.7C377.9,141.6,367.8,131.5,355.2,131.5z M254.3,158
	c-53.6,0-97.1,43.5-97.1,97.1s43.5,97.1,97.1,97.1s97-43.5,97-97.1S307.9,158,254.3,158L254.3,158z M254.3,192.1
	c83.3,0,83.4,126,0,126C171.1,318.1,170.9,192.1,254.3,192.1z"/>
</svg>
