<?xml version="1.0" encoding="utf-8"?>
<!-- Generator: Adobe Illustrator 26.5.0, SVG Export Plug-In . SVG Version: 6.00 Build 0)  -->
<svg version="1.1" id="Layer_1" xmlns="http://www.w3.org/2000/svg" xmlns:xlink="http://www.w3.org/1999/xlink" x="0px" y="0px"
	 viewBox="0 0 48 40" style="enable-background:new 0 0 48 40;" xml:space="preserve">
<style type="text/css">
	.st0{fill-rule:evenodd;clip-rule:evenodd;fill:#FFFFFF;}
	.st1{fill:#FFFFFF;}
</style>
<g>
	<g>
		<polygon class="st0" points="5.9,36.6 6.6,36.5 6.2,36 		"/>
		<polygon class="st0" points="29.7,32.4 30.4,32.3 30,31.8 		"/>
		<path class="st0" d="M9.7,35.3l-1.1,0.2v0.3l1.1-0.2c0,0,0.1,0,0.1-0.1c0,0,0-0.1,0-0.1v0c0,0,0-0.1,0-0.1
			C9.8,35.3,9.8,35.3,9.7,35.3z"/>
		<path class="st0" d="M0.1,34.9V40l47.9-8.4v-5.1L0.1,34.9z M4.3,37.6l-0.5,0.1v-1l-0.6,1.1l-0.3,0.1l-0.6-0.9v1L1.8,38v-1.7
			l0.5-0.1l0.7,1L3.7,36l0.5-0.1V37.6z M7,37.1l-0.2-0.3L5.7,37l-0.2,0.3l-0.6,0.1L6,35.6l0.5-0.1L7.5,37L7,37.1z M9.9,36.6
			l-0.4-0.5l-0.8,0.1v0.5l-0.5,0.1v-1.7l1.6-0.3c0.2,0,0.3,0,0.4,0.1c0.1,0.1,0.2,0.2,0.2,0.4v0c0,0.1,0,0.2-0.1,0.3
			c-0.1,0.1-0.2,0.2-0.3,0.2l0.4,0.5L9.9,36.6z M12.8,36.1l-0.7-0.5l-0.5,0.1v0.6l-0.5,0.1v-1.7l0.5-0.1v0.7l0.5-0.1l0.7-0.8
			l0.7-0.1l-0.9,1l0.9,0.7L12.8,36.1z M16.2,35.5l-2.1,0.4v-1.7l2.1-0.4v0.4l-1.6,0.3v0.2l1.6-0.3v0.4l-1.6,0.3v0.2l1.6-0.3V35.5z
			 M19.1,33.7l-0.9,0.2v1.3l-0.5,0.1v-1.3l-0.9,0.2v-0.4l2.3-0.4V33.7z M20.3,34.7l-0.5,0.1v-1.7l0.5-0.1V34.7z M23.3,34.2l-0.5,0.1
			l-1.2-0.9v1.1l-0.5,0.1v-1.7l0.5-0.1l1.2,0.9v-1.1l0.5-0.1V34.2z M26.4,33.7L26,33.7l0-0.1l-0.1,0.1L24.6,34c-0.2,0-0.3,0-0.4-0.1
			c-0.1-0.1-0.1-0.2-0.1-0.3v-0.7c0-0.1,0-0.3,0.1-0.4c0.1-0.1,0.2-0.2,0.4-0.2l1.8-0.3v0.4l-1.7,0.3c0,0-0.1,0-0.1,0.1
			c0,0,0,0.1,0,0.1v0.6c0,0,0,0.1,0,0.1c0,0,0.1,0,0.1,0l1.2-0.2v-0.2l-1.2,0.2v-0.4l1.6-0.3V33.7z M30.8,32.9l-0.2-0.3l-1.1,0.2
			l-0.2,0.3l-0.6,0.1l1.1-1.9l0.5-0.1l1.1,1.5L30.8,32.9z M34.2,32.3l-0.4,0.1l0-0.1l-0.1,0.1l-1.2,0.2c-0.2,0-0.3,0-0.4-0.1
			c-0.1-0.1-0.1-0.2-0.1-0.3v-0.7c0-0.1,0-0.3,0.1-0.4c0.1-0.1,0.2-0.2,0.4-0.2l1.8-0.3V31l-1.7,0.3c0,0-0.1,0-0.1,0.1
			c0,0,0,0.1,0,0.1v0.6c0,0,0,0.1,0,0.1c0,0,0.1,0,0.1,0l1.2-0.2v-0.2l-1.2,0.2v-0.4l1.6-0.3V32.3z M37.1,31.8L35,32.1v-1.7l2.1-0.4
			v0.4l-1.6,0.3V31l1.6-0.3v0.4l-1.6,0.3v0.2l1.6-0.3V31.8z M40.1,31.2l-0.5,0.1l-1.2-0.9v1.1l-0.5,0.1V30l0.5-0.1l1.2,0.9v-1.1
			l0.5-0.1V31.2z M43.1,30.7L41.4,31c-0.2,0-0.3,0-0.4-0.1c-0.1-0.1-0.1-0.2-0.1-0.3v-0.7c0-0.1,0-0.3,0.1-0.4
			c0.1-0.1,0.2-0.2,0.4-0.2l1.7-0.3v0.4l-1.6,0.3c0,0-0.1,0-0.1,0.1c0,0,0,0.1,0,0.1v0.6c0,0,0,0.1,0,0.1c0,0,0.1,0,0.1,0l1.6-0.3
			V30.7z M45.2,29.8v0.6l-0.5,0.1v-0.6l-1-0.9l0.6-0.1l0.7,0.6l0.7-0.9l0.6-0.1L45.2,29.8z"/>
	</g>
	<g>
		<path class="st0" d="M42.8,0.9"/>
		<polygon class="st0" points="15.3,5.7 0.1,8.4 0.1,13.5 10.3,11.7 10.3,15.9 15.3,15.9 2.4,18.2 2.4,23.3 10.3,21.9 10.3,26.1 
			15.3,26.1 0.1,28.8 0.1,33.9 15.3,31.2 		"/>
		<polygon class="st0" points="31.6,2.9 16.4,5.6 16.4,10.7 26.5,8.9 26.5,13.1 31.6,13.1 18.7,15.3 18.7,20.4 26.5,19 26.5,23.2 
			31.6,23.2 16.4,25.9 16.4,31 31.6,28.3 		"/>
		<g>
			<polygon class="st1" points="47.9,20.4 47.9,25.5 32.7,28.1 32.7,12.9 42.8,11.1 42.8,0.9 47.9,0 47.9,20.4 42.8,20.4 42.8,16.2 
				37.7,17.1 37.7,22.2 			"/>
		</g>
	</g>
</g>
</svg>
